<?xml version="1.0" encoding="utf-8"?>
<!-- Generator: Adobe Illustrator 23.0.6, SVG Export Plug-In . SVG Version: 6.00 Build 0)  -->
<svg version="1.1" id="Layer_1" xmlns="http://www.w3.org/2000/svg" xmlns:xlink="http://www.w3.org/1999/xlink" x="0px" y="0px"
	 viewBox="0 0 872 147" style="enable-background:new 0 0 872 147;" xml:space="preserve">
<style type="text/css">
	.st0{fill:#FEBA06;}
	.st1{fill:#A3D008;}
	.st2{fill:#F8562C;}
	.st3{fill:#39BFCE;}
</style>
<g>
	<path class="st0" d="M107.81,62.16c-5.84,0-10.57,4.73-10.57,10.57c0,5.84,4.73,10.57,10.57,10.57h34.94l-8.04-21.13H107.81z"/>
	<path class="st1" d="M26.94,83.29h51.28c5.84,0,10.57-4.73,10.57-10.57c0-5.83-4.73-10.57-10.57-10.57H26.94
		c-5.84,0-10.57,4.73-10.57,10.57C16.37,78.56,21.1,83.29,26.94,83.29z"/>
	<path class="st2" d="M148.14,98.71H38.86c-2.76-3.28-6.89-5.38-11.51-5.38c-8.3,0-15.02,6.73-15.02,15.02
		c0,8.3,6.73,15.02,15.02,15.02c4.62,0,8.75-2.09,11.51-5.38h116.62L148.14,98.71z"/>
	<path class="st3" d="M121.86,27.14H39.08c-2.75-3.44-6.98-5.66-11.73-5.66c-8.3,0-15.02,6.73-15.02,15.02
		c0,8.3,6.73,15.02,15.02,15.02c4.49,0,8.5-1.98,11.25-5.1h90.6L121.86,27.14z"/>
	<g>
		<g>
			<path d="M197.13,51.77v15.21h25.86v12.54h-25.86v12.65h31.64v12.54h-44.74V39.22h44.74v12.54H197.13z"/>
			<path d="M265.95,104.72h-23.31V39.22h21.98c14.21,0,31.41,7.99,31.41,31.75C296.04,98.17,277.83,104.72,265.95,104.72z
				 M282.94,71.3c0-16.1-8.99-19.54-18.09-19.54h-9.1v40.41h8.77C271.84,92.17,282.94,89.95,282.94,71.3z"/>
			<path d="M362.98,68.97v27.2c-6.11,6.88-15.99,9.21-23.31,9.21c-11.99,0-32.52-6.33-32.52-34.41c0-23.76,17.98-32.3,32.41-32.3
				c7.44,0,15.32,2.11,21.54,7.66c-2.67,3.44-4.77,5.66-7.44,8.88c-4.55-3.55-9.21-4-14.21-4c-8.99,0-19.2,3.77-19.2,20.09
				c0,18.65,11.99,21.54,19.2,21.54c3.66,0,6.99-0.78,10.43-2.66v-8.66h-9.21V68.97H362.98z"/>
			<path d="M390.18,51.77v15.21h25.86v12.54h-25.86v12.65h31.64v12.54h-44.74V39.22h44.74v12.54H390.18z"/>
			<path d="M460.56,39.22h13.1v65.49h-13.1V39.22z"/>
			<path d="M514.96,91.06l-12.54-20.2v33.86H489.2V39.22h9.21l21.65,34.86l21.65-34.86h9.21v65.49h-13.21V70.86l-12.54,20.2H514.96z
				"/>
			<path d="M565.91,39.22h30.42c9.32,0,21.09,6.44,21.09,22.2c0,18.65-11.54,23.42-20.76,23.42h-17.65v19.87h-13.1V39.22z
				 M579.01,51.77V72.3h17.21c3.78,0,8.1-1.67,8.1-10.88c0-7.66-4.11-9.66-8.1-9.66H579.01z"/>
			<path d="M629.08,74.86V39.22h13.1V74.3c0,14.65,6.33,18.54,13.54,18.54c7.22,0,13.54-3.89,13.54-18.54V39.22h13.1v35.63
				c0,25.98-14.65,30.42-26.64,30.53C643.73,105.27,629.08,100.83,629.08,74.86z"/>
			<path d="M709.9,92.17h29.31v12.54H696.8V39.22h13.1V92.17z"/>
			<path d="M794.27,41.89v11.88c0,0-11.88-2.55-17.98-2.55c-5.44,0-13.88,0.89-13.88,6.33c0,8.88,37.52,8.44,37.52,28.86
				c0,13.21-10.32,18.98-25.31,18.98c-12.21,0-19.98-3.66-22.98-5.88V88.84c0,0,13.54,4,20.31,4c3.33,0,14.88,0,14.88-6.33
				c0-8.1-37.63-8.88-37.63-28.2c0-16.54,12.77-19.65,26.09-19.65C786.83,38.67,791.6,40.55,794.27,41.89z"/>
			<path d="M824.69,51.77v15.21h25.86v12.54h-25.86v12.65h31.64v12.54h-44.74V39.22h44.74v12.54H824.69z"/>
		</g>
	</g>
</g>
</svg>
