<?xml version="1.0" encoding="utf-8"?>
<!-- Generator: Adobe Illustrator 23.0.6, SVG Export Plug-In . SVG Version: 6.00 Build 0)  -->
<svg version="1.1" id="Layer_1" xmlns="http://www.w3.org/2000/svg" xmlns:xlink="http://www.w3.org/1999/xlink" x="0px" y="0px"
	 viewBox="0 0 167 147" style="enable-background:new 0 0 872 147;" xml:space="preserve">
<style type="text/css">
	.st0{fill:#FEBA06;}
	.st1{fill:#A3D008;}
	.st2{fill:#F8562C;}
	.st3{fill:#39BFCE;}
</style>
<g>
	<path class="st0" d="M107.81,62.16c-5.84,0-10.57,4.73-10.57,10.57c0,5.84,4.73,10.57,10.57,10.57h34.94l-8.04-21.13H107.81z"/>
	<path class="st1" d="M26.94,83.29h51.28c5.84,0,10.57-4.73,10.57-10.57c0-5.83-4.73-10.57-10.57-10.57H26.94
		c-5.84,0-10.57,4.73-10.57,10.57C16.37,78.56,21.1,83.29,26.94,83.29z"/>
	<path class="st2" d="M148.14,98.71H38.86c-2.76-3.28-6.89-5.38-11.51-5.38c-8.3,0-15.02,6.73-15.02,15.02
		c0,8.3,6.73,15.02,15.02,15.02c4.62,0,8.75-2.09,11.51-5.38h116.62L148.14,98.71z"/>
	<path class="st3" d="M121.86,27.14H39.08c-2.75-3.44-6.98-5.66-11.73-5.66c-8.3,0-15.02,6.73-15.02,15.02
		c0,8.3,6.73,15.02,15.02,15.02c4.49,0,8.5-1.98,11.25-5.1h90.6L121.86,27.14z"/>
</g>
</svg>
