<?xml version="1.0" encoding="utf-8"?>
<svg width="702" height="96" viewBox="0 0 351 48" fill="none" xmlns="http://www.w3.org/2000/svg">
<path d="M45.1353 19.1642C42.3746 19.1642 40.1387 21.3925 40.1387 24.1437C40.1387 26.8949 42.3746 29.1232 45.1353 29.1232H61.652L57.8514 19.1689H45.1353V19.1642Z" fill="#FEBA06"/>
<path d="M6.90678 29.1184H31.1477C33.9084 29.1184 36.1443 26.8901 36.1443 24.1389C36.1443 21.3924 33.9084 19.1594 31.1477 19.1594H6.90678C4.14611 19.1594 1.91016 21.3877 1.91016 24.1389C1.91016 26.8901 4.14611 29.1184 6.90678 29.1184Z" fill="#A3D008"/>
<path d="M64.1997 36.3828H12.5412C11.2365 34.8376 9.28416 33.8483 7.10021 33.8483C3.17666 33.8483 0 37.0187 0 40.9241C0 44.8342 3.18139 48 7.10021 48C9.28416 48 11.2365 47.0154 12.5412 45.4655H67.6695L64.1997 36.3828Z" fill="#F8562C"/>
<path d="M51.7767 2.66641H12.6452C11.3452 1.04583 9.34562 0 7.10021 0C3.17666 0 0 3.17048 0 7.07587C0 10.986 3.18139 14.1517 7.10021 14.1517C9.22271 14.1517 11.1183 13.219 12.4183 11.7491H55.2465L51.7767 2.66641Z" fill="#39BFCE"/>
<path d="M88.6699 36.3113H107.418V31.4923H94.0517V26.3216H105.66V21.5026H94.0517V16.5077H107.242V11.6887H88.6699V36.3113Z" fill="black"/>
<path d="M111.685 36.3113H121.288C129.026 36.3113 134.373 30.9295 134.373 24V23.9297C134.373 17.0002 129.026 11.6887 121.288 11.6887H111.685V36.3113ZM121.288 16.5781C125.72 16.5781 128.71 19.6383 128.71 24V24.0704C128.71 28.4321 125.72 31.422 121.288 31.422H117.102V16.5781H121.288Z" fill="black"/>
<path d="M150.504 36.7334C155.007 36.7334 158.489 34.9747 161.022 32.829V22.1357H150.328V26.814H155.781V30.3316C154.409 31.3165 152.65 31.8089 150.68 31.8089C146.318 31.8089 143.223 28.5024 143.223 24V23.9297C143.223 19.7438 146.354 16.2615 150.293 16.2615C153.142 16.2615 154.831 17.176 156.73 18.7589L160.142 14.6434C157.575 12.4626 154.901 11.2666 150.469 11.2666C143.012 11.2666 137.56 17.0002 137.56 24V24.0704C137.56 31.3516 142.836 36.7334 150.504 36.7334Z" fill="black"/>
<path d="M165.684 36.3113H184.433V31.4923H171.066V26.3216H182.674V21.5026H171.066V16.5077H184.257V11.6887H165.684V36.3113Z" fill="black"/>
<path d="M198.942 36.3113H204.359V11.6887H198.942V36.3113Z" fill="black"/>
<path d="M209.963 36.3113H215.274V20.3418L222.133 30.7537H222.274L229.203 20.2363V36.3113H234.585V11.6887H228.746L222.274 22.1006L215.802 11.6887H209.963V36.3113Z" fill="black"/>
<path d="M239.951 36.3113H245.368V28.9245H249.483C255.006 28.9245 259.438 25.9698 259.438 20.2715V20.2011C259.438 15.171 255.885 11.6887 250.011 11.6887H239.951V36.3113ZM245.368 24.1055V16.5781H249.554C252.262 16.5781 253.95 17.8795 253.95 20.3066V20.377C253.95 22.4875 252.368 24.1055 249.659 24.1055H245.368Z" fill="black"/>
<path d="M273.168 36.6983C279.781 36.6983 283.967 33.04 283.967 25.5829V11.6887H278.55V25.794C278.55 29.6984 276.545 31.7034 273.239 31.7034C269.932 31.7034 267.927 29.6281 267.927 25.6181V11.6887H262.51V25.7588C262.51 33.0049 266.555 36.6983 273.168 36.6983Z" fill="black"/>
<path d="M288.935 36.3113H306.628V31.3868H294.352V11.6887H288.935V36.3113Z" fill="black"/>
<path d="M318.922 36.6631C324.234 36.6631 327.962 33.9194 327.962 29.0301V28.9597C327.962 24.6684 325.148 22.8744 320.154 21.5729C315.897 20.4825 314.842 19.9549 314.842 18.3368V18.2665C314.842 17.0705 315.932 16.1208 318.008 16.1208C320.083 16.1208 322.229 17.0353 324.41 18.5479L327.224 14.4675C324.726 12.4626 321.666 11.337 318.078 11.337C313.048 11.337 309.46 14.2917 309.46 18.7589V18.8293C309.46 23.7186 312.661 25.0905 317.621 26.3568C321.736 27.412 322.581 28.1155 322.581 29.4874V29.5577C322.581 30.9999 321.244 31.8793 319.028 31.8793C316.214 31.8793 313.892 30.7185 311.676 28.8894L308.475 32.7235C311.43 35.3616 315.194 36.6631 318.922 36.6631Z" fill="black"/>
<path d="M332.114 36.3113H350.862V31.4923H337.496V26.3216H349.104V21.5026H337.496V16.5077H350.686V11.6887H332.114V36.3113Z" fill="black"/>
</svg>
